<?xml version="1.0" encoding="utf-8"?>
<!-- Generator: Adobe Illustrator 19.0.1, SVG Export Plug-In . SVG Version: 6.00 Build 0)  -->
<svg version="1.1" id="Layer_1" xmlns="http://www.w3.org/2000/svg" xmlns:xlink="http://www.w3.org/1999/xlink" x="0px" y="0px"
	 viewBox="0 0 555 300" style="enable-background:new 0 0 555 300;" xml:space="preserve">
<style type="text/css">
	.st0{fill:#006838;}
	.st1{fill:#8DC63F;}
	.st2{fill:#2E3192;}
	.st3{fill:#39B54A;}
	.st4{fill:#27AAE1;}
	.st5{fill:#603913;}
</style>
<rect y="235.5" class="st0" width="555" height="64.5"/>
<ellipse class="st1" cx="281.5" cy="256.5" rx="8.2" ry="10.5"/>
<rect class="st2" width="0" height="0"/>
<ellipse class="st3" cx="281.5" cy="268" rx="12.8" ry="19"/>
<ellipse class="st3" cx="272.9" cy="281.7" rx="6.3" ry="5.5"/>
<path class="st3" d="M276,259.5c-0.9,1.7-4.2,1.7-7.4,0c-3.2-1.6-5.2-4.3-4.3-5.9s4.2-1.7,7.4,0C275,255.2,276.9,257.9,276,259.5z"
	/>
<ellipse cx="278.3" cy="252.3" rx="1.7" ry="1.5"/>
<ellipse class="st3" cx="264.6" cy="256.4" rx="1.5" ry="1.7"/>
<ellipse class="st3" cx="264.3" cy="253.6" rx="1.5" ry="1.7"/>
<ellipse class="st3" cx="266.2" cy="252.4" rx="1.5" ry="1.7"/>
<path class="st3" d="M267.6,282.9c-0.1,0.9-0.9,1.6-1.8,1.4c-0.8-0.1-1.4-1-1.3-1.9c0.1-0.9,0.9-1.6,1.8-1.4
	C267.2,281.2,267.7,282,267.6,282.9z"/>
<ellipse class="st3" cx="267.3" cy="279" rx="1.5" ry="1.7"/>
<ellipse class="st3" cx="270.4" cy="276.9" rx="1.5" ry="1.7"/>
<ellipse cx="284.9" cy="252.3" rx="1.7" ry="1.5"/>
<ellipse class="st3" cx="291.2" cy="281.5" rx="6.3" ry="5.5"/>
<path class="st3" d="M296.3,282.7c0.1,0.9,0.9,1.6,1.8,1.4c0.8-0.1,1.4-1,1.3-1.9c-0.1-0.9-0.9-1.6-1.8-1.4
	C296.7,280.9,296.2,281.8,296.3,282.7z"/>
<ellipse class="st3" cx="296.6" cy="278.8" rx="1.5" ry="1.7"/>
<ellipse class="st3" cx="293.5" cy="276.7" rx="1.5" ry="1.7"/>
<path class="st3" d="M287.9,259.6c0.9,1.7,4.2,1.7,7.4,0s5.2-4.3,4.3-5.9c-0.9-1.7-4.2-1.7-7.4,0C289,255.3,287.1,258,287.9,259.6z"
	/>
<ellipse class="st3" cx="299.4" cy="256.5" rx="1.5" ry="1.7"/>
<ellipse class="st3" cx="299.7" cy="253.7" rx="1.5" ry="1.7"/>
<ellipse class="st3" cx="297.8" cy="252.5" rx="1.5" ry="1.7"/>
<rect class="st0" width="555" height="64.5"/>
<rect y="64.5" class="st4" width="555" height="171"/>
<rect x="22" y="83.5" class="st5" width="136.5" height="14.5"/>
<rect x="239.5" y="145" class="st5" width="136.5" height="14.5"/>
<rect x="222.9" y="95" class="st5" width="136.5" height="14.5"/>
<rect x="62" y="179.5" class="st5" width="136.5" height="14.5"/>
<rect x="320.5" y="197" class="st5" width="136.5" height="14.5"/>
<rect x="399.5" y="115.5" class="st5" width="136.5" height="14.5"/>
<rect x="399.5" y="167.5" class="st5" width="136.5" height="14.5"/>
</svg>
