<?xml version="1.0" encoding="utf-8"?>
<!-- Generator: Adobe Illustrator 19.0.1, SVG Export Plug-In . SVG Version: 6.00 Build 0)  -->
<svg version="1.1" id="Layer_1" xmlns="http://www.w3.org/2000/svg" xmlns:xlink="http://www.w3.org/1999/xlink" x="0px" y="0px"
	 viewBox="0 0 555 300" style="enable-background:new 0 0 555 300;" xml:space="preserve">
<style type="text/css">
	.st0{fill:#FFFFFF;stroke:#000000;stroke-miterlimit:10;}
	.st1{fill:#A7A9AC;}
	.st2{fill:#2E3192;}
	.st3{fill:#414042;}
	.st4{fill:none;stroke:#2E3192;stroke-miterlimit:10;}
</style>
<rect x="162" y="11.9" class="st0" width="231" height="274.1"/>
<rect x="162" y="11.9" class="st1" width="231" height="45.6"/>
<rect class="st2" width="0" height="0"/>
<rect x="298.9" y="16.1" class="st2" width="88.3" height="10"/>
<rect x="341.1" y="32.4" class="st2" width="46" height="6.3"/>
<rect x="341.1" y="42.9" class="st2" width="46" height="6.3"/>
<rect x="164.6" y="16.1" class="st3" width="65.3" height="10"/>
<rect x="164.6" y="32.4" class="st3" width="63.2" height="6.3"/>
<rect x="254.5" y="67.6" class="st2" width="46" height="6.3"/>
<rect x="164.6" y="76.8" class="st3" width="222.6" height="6.3"/>
<rect x="164.6" y="86" class="st3" width="222.6" height="6.3"/>
<rect x="164.6" y="94.8" class="st3" width="222.6" height="6.3"/>
<line class="st4" x1="164.6" y1="111.5" x2="387.2" y2="111.5"/>
<rect x="254.5" y="118.6" class="st2" width="46" height="6.3"/>
<rect x="244.3" y="129.3" class="st3" width="63.2" height="6.3"/>
<rect x="244.3" y="138.5" class="st3" width="63.2" height="6.3"/>
<rect x="244.3" y="147.9" class="st3" width="63.2" height="6.3"/>
<rect x="244.3" y="157.9" class="st3" width="63.2" height="6.3"/>
<rect x="244.3" y="168" class="st3" width="63.2" height="6.3"/>
<rect x="244.3" y="177.1" class="st3" width="63.2" height="6.3"/>
<line class="st4" x1="166.2" y1="191.4" x2="388.8" y2="191.4"/>
<rect x="173.1" y="205.3" class="st2" width="46" height="6.3"/>
<line class="st4" x1="277.5" y1="203.6" x2="277.5" y2="276.4"/>
<rect x="173.1" y="222.5" class="st3" width="63.2" height="6.3"/>
<rect x="173.1" y="231.7" class="st3" width="63.2" height="6.3"/>
<rect x="173.1" y="241.1" class="st3" width="63.2" height="6.3"/>
<rect x="173.1" y="251.1" class="st3" width="63.2" height="6.3"/>
<rect x="334.4" y="205.7" class="st2" width="46" height="6.3"/>
<rect x="317.3" y="223" class="st3" width="63.2" height="6.3"/>
<rect x="317.3" y="232.2" class="st3" width="63.2" height="6.3"/>
<rect x="317.3" y="241.5" class="st3" width="63.2" height="6.3"/>
<rect x="317.3" y="251.5" class="st3" width="63.2" height="6.3"/>
</svg>
